<?xml version="1.0" encoding="UTF-8"?><svg xmlns="http://www.w3.org/2000/svg" xmlns:xlink="http://www.w3.org/1999/xlink" fill-opacity="1" color-rendering="auto" color-interpolation="auto" text-rendering="auto" stroke="black" stroke-linecap="square" width="1122" stroke-miterlimit="10" shape-rendering="auto" stroke-opacity="1" fill="black" stroke-dasharray="none" font-weight="normal" stroke-width="1" height="546" font-family="'Dialog'" font-style="normal" stroke-linejoin="miter" font-size="12px" stroke-dashoffset="0" image-rendering="auto">
  <!--Generated by ySVG 2.5-->
  <defs id="genericDefs"/>
  <g>
    <defs id="defs1">
      <linearGradient x1="555.25" gradientUnits="userSpaceOnUse" x2="601.25" y1="198.5" y2="310.5" id="linearGradient1" spreadMethod="reflect">
        <stop stop-opacity="1" stop-color="rgb(255,153,0)" offset="0%"/>
        <stop stop-opacity="1" stop-color="rgb(255,153,0)" offset="100%"/>
      </linearGradient>
      <linearGradient x1="555.25" gradientUnits="userSpaceOnUse" x2="601.25" y1="327" y2="439" id="linearGradient2" spreadMethod="reflect">
        <stop stop-opacity="1" stop-color="rgb(255,153,0)" offset="0%"/>
        <stop stop-opacity="1" stop-color="rgb(255,153,0)" offset="100%"/>
      </linearGradient>
      <linearGradient x1="196.75" gradientUnits="userSpaceOnUse" x2="276.75" y1="152" y2="223" id="linearGradient3" spreadMethod="reflect">
        <stop stop-opacity="1" stop-color="yellow" offset="0%"/>
        <stop stop-opacity="1" stop-color="yellow" offset="100%"/>
      </linearGradient>
      <linearGradient x1="384.25" gradientUnits="userSpaceOnUse" x2="464.25" y1="287.5" y2="358.5" id="linearGradient4" spreadMethod="reflect">
        <stop stop-opacity="1" stop-color="yellow" offset="0%"/>
        <stop stop-opacity="1" stop-color="yellow" offset="100%"/>
      </linearGradient>
      <linearGradient x1="679.25" gradientUnits="userSpaceOnUse" x2="773.25" y1="234.5" y2="274.5" id="linearGradient5" spreadMethod="reflect">
        <stop stop-opacity="1" stop-color="silver" offset="0%"/>
        <stop stop-opacity="1" stop-color="silver" offset="100%"/>
      </linearGradient>
      <linearGradient x1="679.25" gradientUnits="userSpaceOnUse" x2="773.25" y1="363" y2="403" id="linearGradient6" spreadMethod="reflect">
        <stop stop-opacity="1" stop-color="silver" offset="0%"/>
        <stop stop-opacity="1" stop-color="silver" offset="100%"/>
      </linearGradient>
      <linearGradient x1="679.25" gradientUnits="userSpaceOnUse" x2="773.25" y1="298.75" y2="338.75" id="linearGradient7" spreadMethod="reflect">
        <stop stop-opacity="1" stop-color="silver" offset="0%"/>
        <stop stop-opacity="1" stop-color="silver" offset="100%"/>
      </linearGradient>
      <linearGradient x1="165.5" gradientUnits="userSpaceOnUse" x2="211.5" y1="-25.5" y2="86.5" id="linearGradient8" spreadMethod="reflect">
        <stop stop-opacity="1" stop-color="lime" offset="0%"/>
        <stop stop-opacity="1" stop-color="lime" offset="100%"/>
      </linearGradient>
      <linearGradient x1="41.5" gradientUnits="userSpaceOnUse" x2="135.5" y1="-15" y2="25" id="linearGradient9" spreadMethod="reflect">
        <stop stop-opacity="1" stop-color="silver" offset="0%"/>
        <stop stop-opacity="1" stop-color="silver" offset="100%"/>
      </linearGradient>
      <linearGradient x1="259" gradientUnits="userSpaceOnUse" x2="311" y1="267" y2="379" id="linearGradient10" spreadMethod="reflect">
        <stop stop-opacity="1" stop-color="rgb(153,204,255)" offset="0%"/>
        <stop stop-opacity="1" stop-color="rgb(153,204,255)" offset="100%"/>
      </linearGradient>
      <linearGradient x1="2.625" gradientUnits="userSpaceOnUse" x2="116.625" y1="267" y2="379" id="linearGradient11" spreadMethod="reflect">
        <stop stop-opacity="1" stop-color="rgb(153,204,255)" offset="0%"/>
        <stop stop-opacity="1" stop-color="rgb(153,204,255)" offset="100%"/>
      </linearGradient>
      <linearGradient x1="-82.875" gradientUnits="userSpaceOnUse" x2="-15.875" y1="267" y2="379" id="linearGradient12" spreadMethod="reflect">
        <stop stop-opacity="1" stop-color="rgb(153,204,255)" offset="0%"/>
        <stop stop-opacity="1" stop-color="rgb(153,204,255)" offset="100%"/>
      </linearGradient>
      <linearGradient x1="-153.375" gradientUnits="userSpaceOnUse" x2="-101.375" y1="267" y2="379" id="linearGradient13" spreadMethod="reflect">
        <stop stop-opacity="1" stop-color="rgb(153,204,255)" offset="0%"/>
        <stop stop-opacity="1" stop-color="rgb(153,204,255)" offset="100%"/>
      </linearGradient>
      <linearGradient x1="-194.875" gradientUnits="userSpaceOnUse" x2="-171.875" y1="267" y2="379" id="linearGradient14" spreadMethod="reflect">
        <stop stop-opacity="1" stop-color="rgb(153,204,255)" offset="0%"/>
        <stop stop-opacity="1" stop-color="rgb(153,204,255)" offset="100%"/>
      </linearGradient>
      <clipPath clipPathUnits="userSpaceOnUse" id="clipPath1">
        <path d="M0 0 L1122 0 L1122 546 L0 546 L0 0 Z"/>
      </clipPath>
      <clipPath clipPathUnits="userSpaceOnUse" id="clipPath2">
        <path d="M-269 -66 L853 -66 L853 480 L-269 480 L-269 -66 Z"/>
      </clipPath>
      <clipPath clipPathUnits="userSpaceOnUse" id="clipPath3">
        <path d="M-375.8936 420.6914 L-375.8936 -701.3086 L170.1064 -701.3086 L170.1064 420.6914 L-375.8936 420.6914 Z"/>
      </clipPath>
      <clipPath clipPathUnits="userSpaceOnUse" id="clipPath4">
        <path d="M-112.4033 520.5664 L-112.4033 -601.4336 L433.5967 -601.4336 L433.5967 520.5664 L-112.4033 520.5664 Z"/>
      </clipPath>
      <clipPath clipPathUnits="userSpaceOnUse" id="clipPath5">
        <path d="M-19.9297 520.5664 L-19.9297 -601.4336 L526.0703 -601.4336 L526.0703 520.5664 L-19.9297 520.5664 Z"/>
      </clipPath>
      <clipPath clipPathUnits="userSpaceOnUse" id="clipPath6">
        <path d="M-352.8926 514.8164 L-352.8926 -607.1836 L193.1074 -607.1836 L193.1074 514.8164 L-352.8926 514.8164 Z"/>
      </clipPath>
      <clipPath clipPathUnits="userSpaceOnUse" id="clipPath7">
        <path d="M-363.1875 626.5664 L-363.1875 -495.4336 L182.8125 -495.4336 L182.8125 626.5664 L-363.1875 626.5664 Z"/>
      </clipPath>
      <clipPath clipPathUnits="userSpaceOnUse" id="clipPath8">
        <path d="M-361.752 778.0664 L-361.752 -343.9336 L184.248 -343.9336 L184.248 778.0664 L-361.752 778.0664 Z"/>
      </clipPath>
      <clipPath clipPathUnits="userSpaceOnUse" id="clipPath9">
        <path d="M-422.7832 916.8164 L-422.7832 -205.1836 L123.2168 -205.1836 L123.2168 916.8164 L-422.7832 916.8164 Z"/>
      </clipPath>
      <clipPath clipPathUnits="userSpaceOnUse" id="clipPath10">
        <path d="M-291.0078 916.8164 L-291.0078 -205.1836 L254.9922 -205.1836 L254.9922 916.8164 L-291.0078 916.8164 Z"/>
      </clipPath>
      <clipPath clipPathUnits="userSpaceOnUse" id="clipPath11">
        <path d="M-271.1807 1106.8164 L-271.1807 -15.1836 L274.8193 -15.1836 L274.8193 1106.8164 L-271.1807 1106.8164 Z"/>
      </clipPath>
      <clipPath clipPathUnits="userSpaceOnUse" id="clipPath12">
        <path d="M-364.0762 1106.8164 L-364.0762 -15.1836 L181.9238 -15.1836 L181.9238 1106.8164 L-364.0762 1106.8164 Z"/>
      </clipPath>
      <clipPath clipPathUnits="userSpaceOnUse" id="clipPath13">
        <path d="M-464.4307 1106.8164 L-464.4307 -15.1836 L81.5693 -15.1836 L81.5693 1106.8164 L-464.4307 1106.8164 Z"/>
      </clipPath>
      <clipPath clipPathUnits="userSpaceOnUse" id="clipPath14">
        <path d="M-369.2666 33.5664 L-369.2666 -1088.4336 L176.7334 -1088.4336 L176.7334 33.5664 L-369.2666 33.5664 Z"/>
      </clipPath>
      <clipPath clipPathUnits="userSpaceOnUse" id="clipPath15">
        <path d="M-277.8154 856.3164 L-277.8154 -265.6836 L268.1846 -265.6836 L268.1846 856.3164 L-277.8154 856.3164 Z"/>
      </clipPath>
      <clipPath clipPathUnits="userSpaceOnUse" id="clipPath16">
        <path d="M-403.2188 856.3164 L-403.2188 -265.6836 L142.7812 -265.6836 L142.7812 856.3164 L-403.2188 856.3164 Z"/>
      </clipPath>
      <clipPath clipPathUnits="userSpaceOnUse" id="clipPath17">
        <path d="M-82.957 466.5664 L-82.957 -655.4336 L463.043 -655.4336 L463.043 466.5664 L-82.957 466.5664 Z"/>
      </clipPath>
      <clipPath clipPathUnits="userSpaceOnUse" id="clipPath18">
        <path d="M-345.0557 570.1328 L-345.0557 -551.8672 L200.9443 -551.8672 L200.9443 570.1328 L-345.0557 570.1328 Z"/>
      </clipPath>
      <clipPath clipPathUnits="userSpaceOnUse" id="clipPath19">
        <path d="M-345.0557 344.7578 L-345.0557 -777.2422 L200.9443 -777.2422 L200.9443 344.7578 L-345.0557 344.7578 Z"/>
      </clipPath>
      <clipPath clipPathUnits="userSpaceOnUse" id="clipPath20">
        <path d="M-345.0557 235.7578 L-345.0557 -886.2422 L200.9443 -886.2422 L200.9443 235.7578 L-345.0557 235.7578 Z"/>
      </clipPath>
      <clipPath clipPathUnits="userSpaceOnUse" id="clipPath21">
        <path d="M-345.0557 157.7578 L-345.0557 -964.2422 L200.9443 -964.2422 L200.9443 157.7578 L-345.0557 157.7578 Z"/>
      </clipPath>
      <clipPath clipPathUnits="userSpaceOnUse" id="clipPath22">
        <path d="M-369.2256 94.6914 L-369.2256 -1027.3086 L176.7744 -1027.3086 L176.7744 94.6914 L-369.2256 94.6914 Z"/>
      </clipPath>
    </defs>
    <g fill="white" text-rendering="geometricPrecision" shape-rendering="geometricPrecision" transform="translate(269,66)" stroke="white">
      <rect x="-269" width="1122" height="546" y="-66" clip-path="url(#clipPath2)" stroke="none"/>
    </g>
    <g text-rendering="geometricPrecision" stroke-miterlimit="1.45" shape-rendering="geometricPrecision" transform="matrix(1,0,0,1,269,66)" stroke-linecap="butt">
      <path fill="none" d="M135.125 267 L150.125 267 L150.125 379 L135.125 379 Z" clip-path="url(#clipPath2)"/>
    </g>
    <g text-rendering="geometricPrecision" stroke-miterlimit="1.45" shape-rendering="geometricPrecision" font-family="sans-serif" transform="matrix(0,1,-1,0,420.6914,375.8936)" stroke-linecap="butt">
      <text x="2" xml:space="preserve" y="13.6016" clip-path="url(#clipPath3)" stroke="none">feat</text>
    </g>
    <g text-rendering="geometricPrecision" stroke-miterlimit="1.45" shape-rendering="geometricPrecision" transform="matrix(1,0,0,1,269,66)" stroke-linecap="butt">
      <path fill="none" d="M235 37 L250 37 L250 108 L235 108 Z" clip-path="url(#clipPath2)"/>
    </g>
    <g text-rendering="geometricPrecision" stroke-miterlimit="1.45" shape-rendering="geometricPrecision" font-family="sans-serif" transform="matrix(0,1,-1,0,520.5664,112.4033)" stroke-linecap="butt">
      <text x="2" xml:space="preserve" y="13.6016" clip-path="url(#clipPath4)" stroke="none">rpn_box</text>
    </g>
    <g text-rendering="geometricPrecision" stroke-miterlimit="1.45" shape-rendering="geometricPrecision" transform="matrix(1,0,0,1,269,66)" stroke-linecap="butt">
      <path fill="none" d="M235 -51 L250 -51 L250 20 L235 20 Z" clip-path="url(#clipPath2)"/>
    </g>
    <g text-rendering="geometricPrecision" stroke-miterlimit="1.45" shape-rendering="geometricPrecision" font-family="sans-serif" transform="matrix(0,1,-1,0,520.5664,19.9297)" stroke-linecap="butt">
      <text x="2" xml:space="preserve" y="13.6016" clip-path="url(#clipPath5)" stroke="none">rpn_score</text>
    </g>
    <g text-rendering="geometricPrecision" stroke-miterlimit="1.45" shape-rendering="geometricPrecision" transform="matrix(1,0,0,1,269,66)" stroke-linecap="butt">
      <path fill="none" d="M229.25 280.5 L244.25 280.5 L244.25 365.5 L229.25 365.5 Z" clip-path="url(#clipPath2)"/>
    </g>
    <g text-rendering="geometricPrecision" stroke-miterlimit="1.45" shape-rendering="geometricPrecision" font-family="sans-serif" transform="matrix(0,1,-1,0,514.8164,352.8926)" stroke-linecap="butt">
      <text x="2" xml:space="preserve" y="13.6016" clip-path="url(#clipPath6)" stroke="none">pooled_feat</text>
    </g>
    <g text-rendering="geometricPrecision" stroke-miterlimit="1.45" shape-rendering="geometricPrecision" transform="matrix(1,0,0,1,269,66)" stroke-linecap="butt">
      <path fill="none" d="M341 280.5 L356 280.5 L356 365.5 L341 365.5 Z" clip-path="url(#clipPath2)"/>
    </g>
    <g text-rendering="geometricPrecision" stroke-miterlimit="1.45" shape-rendering="geometricPrecision" font-family="sans-serif" transform="matrix(0,1,-1,0,626.5664,363.1875)" stroke-linecap="butt">
      <text x="2" xml:space="preserve" y="13.6016" clip-path="url(#clipPath7)" stroke="none">top_feat</text>
    </g>
    <g text-rendering="geometricPrecision" stroke-miterlimit="1.45" shape-rendering="geometricPrecision" transform="matrix(1,0,0,1,269,66)" stroke-linecap="butt">
      <path fill="none" d="M492.5 280.5 L507.5 280.5 L507.5 365.5 L492.5 365.5 Z" clip-path="url(#clipPath2)"/>
    </g>
    <g text-rendering="geometricPrecision" stroke-miterlimit="1.45" shape-rendering="geometricPrecision" font-family="sans-serif" transform="matrix(0,1,-1,0,778.0664,361.752)" stroke-linecap="butt">
      <text x="2" xml:space="preserve" y="13.6016" clip-path="url(#clipPath8)" stroke="none">box_feat</text>
    </g>
    <g text-rendering="geometricPrecision" stroke-miterlimit="1.45" shape-rendering="geometricPrecision" transform="matrix(1,0,0,1,269,66)" stroke-linecap="butt">
      <path fill="none" d="M631.25 340.5 L646.25 340.5 L646.25 425.5 L631.25 425.5 Z" clip-path="url(#clipPath2)"/>
    </g>
    <g text-rendering="geometricPrecision" stroke-miterlimit="1.45" shape-rendering="geometricPrecision" font-family="sans-serif" transform="matrix(0,1,-1,0,916.8164,422.7832)" stroke-linecap="butt">
      <text x="2" xml:space="preserve" y="13.6016" clip-path="url(#clipPath9)" stroke="none">cls_pred</text>
    </g>
    <g text-rendering="geometricPrecision" stroke-miterlimit="1.45" shape-rendering="geometricPrecision" transform="matrix(1,0,0,1,269,66)" stroke-linecap="butt">
      <path fill="none" d="M631.25 212 L646.25 212 L646.25 297 L631.25 297 Z" clip-path="url(#clipPath2)"/>
    </g>
    <g text-rendering="geometricPrecision" stroke-miterlimit="1.45" shape-rendering="geometricPrecision" font-family="sans-serif" transform="matrix(0,1,-1,0,916.8164,291.0078)" stroke-linecap="butt">
      <text x="2" xml:space="preserve" y="13.6016" clip-path="url(#clipPath10)" stroke="none">box_pred</text>
    </g>
    <g text-rendering="geometricPrecision" stroke-miterlimit="1.45" shape-rendering="geometricPrecision" transform="matrix(1,0,0,1,269,66)" stroke-linecap="butt">
      <path fill="none" d="M821.25 173.25 L836.25 173.25 L836.25 258.25 L821.25 258.25 Z" clip-path="url(#clipPath2)"/>
    </g>
    <g text-rendering="geometricPrecision" stroke-miterlimit="1.45" shape-rendering="geometricPrecision" font-family="sans-serif" transform="matrix(0,1,-1,0,1106.8164,271.1807)" stroke-linecap="butt">
      <text x="2" xml:space="preserve" y="13.6016" clip-path="url(#clipPath11)" stroke="none">ids</text>
    </g>
    <g text-rendering="geometricPrecision" stroke-miterlimit="1.45" shape-rendering="geometricPrecision" transform="matrix(1,0,0,1,269,66)" stroke-linecap="butt">
      <path fill="none" d="M821.25 276.25 L836.25 276.25 L836.25 361.25 L821.25 361.25 Z" clip-path="url(#clipPath2)"/>
    </g>
    <g text-rendering="geometricPrecision" stroke-miterlimit="1.45" shape-rendering="geometricPrecision" font-family="sans-serif" transform="matrix(0,1,-1,0,1106.8164,364.0762)" stroke-linecap="butt">
      <text x="2" xml:space="preserve" y="13.6016" clip-path="url(#clipPath12)" stroke="none">scores</text>
    </g>
    <g text-rendering="geometricPrecision" stroke-miterlimit="1.45" shape-rendering="geometricPrecision" transform="matrix(1,0,0,1,269,66)" stroke-linecap="butt">
      <path fill="none" d="M821.25 379.25 L836.25 379.25 L836.25 464.25 L821.25 464.25 Z" clip-path="url(#clipPath2)"/>
    </g>
    <g text-rendering="geometricPrecision" stroke-miterlimit="1.45" shape-rendering="geometricPrecision" font-family="sans-serif" transform="matrix(0,1,-1,0,1106.8164,464.4307)" stroke-linecap="butt">
      <text x="2" xml:space="preserve" y="13.6016" clip-path="url(#clipPath13)" stroke="none">bboxes</text>
    </g>
    <g text-rendering="geometricPrecision" stroke-miterlimit="1.45" shape-rendering="geometricPrecision" transform="matrix(1,0,0,1,269,66)" stroke-linecap="butt">
      <path fill="none" d="M-252 267 L-237 267 L-237 379 L-252 379 Z" clip-path="url(#clipPath2)"/>
    </g>
    <g text-rendering="geometricPrecision" stroke-miterlimit="1.45" shape-rendering="geometricPrecision" font-family="sans-serif" transform="matrix(0,1,-1,0,33.5664,369.2666)" stroke-linecap="butt">
      <text x="2" xml:space="preserve" y="13.6016" clip-path="url(#clipPath14)" stroke="none">image</text>
    </g>
    <g fill="url(#linearGradient1)" text-rendering="geometricPrecision" shape-rendering="geometricPrecision" transform="matrix(1,0,0,1,269,66)" stroke="url(#linearGradient1)">
      <path d="M555.25 198.5 L601.25 198.5 L601.25 310.5 L555.25 310.5 Z" stroke="none" clip-path="url(#clipPath2)"/>
    </g>
    <g text-rendering="geometricPrecision" stroke-miterlimit="1.45" shape-rendering="geometricPrecision" transform="matrix(1,0,0,1,269,66)" stroke-linecap="butt">
      <path fill="none" d="M555.25 198.5 L601.25 198.5 L601.25 310.5 L555.25 310.5 Z" clip-path="url(#clipPath2)"/>
    </g>
    <g text-rendering="geometricPrecision" stroke-miterlimit="1.45" shape-rendering="geometricPrecision" font-family="sans-serif" transform="matrix(0,1,-1,0,856.3164,277.8154)" stroke-linecap="butt">
      <text x="2" xml:space="preserve" y="13.6016" clip-path="url(#clipPath15)" stroke="none">box_predictor</text>
    </g>
    <g fill="url(#linearGradient2)" text-rendering="geometricPrecision" shape-rendering="geometricPrecision" transform="matrix(1,0,0,1,269,66)" stroke="url(#linearGradient2)">
      <path d="M555.25 327 L601.25 327 L601.25 439 L555.25 439 Z" stroke="none" clip-path="url(#clipPath2)"/>
    </g>
    <g text-rendering="geometricPrecision" stroke-miterlimit="1.45" shape-rendering="geometricPrecision" transform="matrix(1,0,0,1,269,66)" stroke-linecap="butt">
      <path fill="none" d="M555.25 327 L601.25 327 L601.25 439 L555.25 439 Z" clip-path="url(#clipPath2)"/>
    </g>
    <g text-rendering="geometricPrecision" stroke-miterlimit="1.45" shape-rendering="geometricPrecision" font-family="sans-serif" transform="matrix(0,1,-1,0,856.3164,403.2188)" stroke-linecap="butt">
      <text x="2" xml:space="preserve" y="13.6016" clip-path="url(#clipPath16)" stroke="none">class_predictor</text>
    </g>
    <g fill="rgb(153,204,255)" text-rendering="geometricPrecision" shape-rendering="geometricPrecision" transform="matrix(1,0,0,1,269,66)" stroke="rgb(153,204,255)">
      <path d="M-245.5 42.5 L-160.5 42.5 L-160.5 57.5 L-145.5 57.5 L-145.5 70.5 L-245.5 70.5 Z" stroke="none" clip-path="url(#clipPath2)"/>
    </g>
    <g fill="white" text-rendering="geometricPrecision" shape-rendering="geometricPrecision" transform="matrix(1,0,0,1,269,66)" stroke="white">
      <path d="M-160.5 42.5 L-160.5 57.5 L-145.5 57.5 Z" fill-rule="evenodd" clip-path="url(#clipPath2)" stroke="none"/>
    </g>
    <g text-rendering="geometricPrecision" stroke-miterlimit="1.45" shape-rendering="geometricPrecision" transform="matrix(1,0,0,1,269,66)" stroke-linecap="butt">
      <path fill="none" d="M-245.5 42.5 L-160.5 42.5 L-160.5 57.5 L-145.5 57.5 L-145.5 70.5 L-245.5 70.5 Z" clip-path="url(#clipPath2)"/>
      <path fill="none" d="M-160.5 42.5 L-160.5 57.5 L-145.5 57.5 Z" clip-path="url(#clipPath2)" fill-rule="evenodd"/>
      <text x="-226.0654" xml:space="preserve" y="61.0352" clip-path="url(#clipPath2)" font-family="sans-serif" stroke="none">Resnet-50</text>
    </g>
    <g fill="lime" text-rendering="geometricPrecision" shape-rendering="geometricPrecision" transform="matrix(1,0,0,1,269,66)" stroke="lime">
      <path d="M-245.5 84.5 L-160.5 84.5 L-160.5 99.5 L-145.5 99.5 L-145.5 112.5 L-245.5 112.5 Z" stroke="none" clip-path="url(#clipPath2)"/>
      <path fill="white" d="M-160.5 84.5 L-160.5 99.5 L-145.5 99.5 Z" clip-path="url(#clipPath2)" fill-rule="evenodd" stroke="none"/>
    </g>
    <g text-rendering="geometricPrecision" stroke-miterlimit="1.45" shape-rendering="geometricPrecision" transform="matrix(1,0,0,1,269,66)" stroke-linecap="butt">
      <path fill="none" d="M-245.5 84.5 L-160.5 84.5 L-160.5 99.5 L-145.5 99.5 L-145.5 112.5 L-245.5 112.5 Z" clip-path="url(#clipPath2)"/>
      <path fill="none" d="M-160.5 84.5 L-160.5 99.5 L-145.5 99.5 Z" clip-path="url(#clipPath2)" fill-rule="evenodd"/>
      <text x="-207.043" xml:space="preserve" y="103.0352" clip-path="url(#clipPath2)" font-family="sans-serif" stroke="none">RPN</text>
    </g>
    <g fill="yellow" text-rendering="geometricPrecision" shape-rendering="geometricPrecision" transform="matrix(1,0,0,1,269,66)" stroke="yellow">
      <path d="M-245.5 126.5 L-160.5 126.5 L-160.5 141.5 L-145.5 141.5 L-145.5 154.5 L-245.5 154.5 Z" stroke="none" clip-path="url(#clipPath2)"/>
      <path fill="white" d="M-160.5 126.5 L-160.5 141.5 L-145.5 141.5 Z" clip-path="url(#clipPath2)" fill-rule="evenodd" stroke="none"/>
    </g>
    <g text-rendering="geometricPrecision" stroke-miterlimit="1.45" shape-rendering="geometricPrecision" transform="matrix(1,0,0,1,269,66)" stroke-linecap="butt">
      <path fill="none" d="M-245.5 126.5 L-160.5 126.5 L-160.5 141.5 L-145.5 141.5 L-145.5 154.5 L-245.5 154.5 Z" clip-path="url(#clipPath2)"/>
      <path fill="none" d="M-160.5 126.5 L-160.5 141.5 L-145.5 141.5 Z" clip-path="url(#clipPath2)" fill-rule="evenodd"/>
      <text x="-217.1211" xml:space="preserve" y="145.0352" clip-path="url(#clipPath2)" font-family="sans-serif" stroke="none">Pooling</text>
    </g>
    <g fill="rgb(255,153,0)" text-rendering="geometricPrecision" shape-rendering="geometricPrecision" transform="matrix(1,0,0,1,269,66)" stroke="rgb(255,153,0)">
      <path d="M-245.5 173.5 L-160.5 173.5 L-160.5 188.5 L-145.5 188.5 L-145.5 201.5 L-245.5 201.5 Z" stroke="none" clip-path="url(#clipPath2)"/>
      <path fill="white" d="M-160.5 173.5 L-160.5 188.5 L-145.5 188.5 Z" clip-path="url(#clipPath2)" fill-rule="evenodd" stroke="none"/>
    </g>
    <g text-rendering="geometricPrecision" stroke-miterlimit="1.45" shape-rendering="geometricPrecision" transform="matrix(1,0,0,1,269,66)" stroke-linecap="butt">
      <path fill="none" d="M-245.5 173.5 L-160.5 173.5 L-160.5 188.5 L-145.5 188.5 L-145.5 201.5 L-245.5 201.5 Z" clip-path="url(#clipPath2)"/>
      <path fill="none" d="M-160.5 173.5 L-160.5 188.5 L-145.5 188.5 Z" clip-path="url(#clipPath2)" fill-rule="evenodd"/>
      <text x="-215.7822" xml:space="preserve" y="192.0352" clip-path="url(#clipPath2)" font-family="sans-serif" stroke="none">R-CNN</text>
    </g>
    <g fill="url(#linearGradient3)" text-rendering="geometricPrecision" shape-rendering="geometricPrecision" transform="matrix(1,0,0,1,269,66)" stroke="url(#linearGradient3)">
      <path d="M196.75 152 L276.75 152 L266.75 223 L206.75 223 Z" stroke="none" clip-path="url(#clipPath2)"/>
    </g>
    <g text-rendering="geometricPrecision" stroke-miterlimit="1.45" shape-rendering="geometricPrecision" transform="matrix(1,0,0,1,269,66)" stroke-linecap="butt">
      <path fill="none" d="M196.75 152 L276.75 152 L266.75 223 L206.75 223 Z" clip-path="url(#clipPath2)"/>
      <text x="204.9453" xml:space="preserve" y="177.9023" clip-path="url(#clipPath2)" font-family="sans-serif" stroke="none">ROIPooling</text>
      <text x="230.6094" xml:space="preserve" y="192.0352" clip-path="url(#clipPath2)" font-family="sans-serif" stroke="none">or</text>
      <text x="211.4932" xml:space="preserve" y="206.168" clip-path="url(#clipPath2)" font-family="sans-serif" stroke="none">ROIAlign</text>
    </g>
    <g fill="url(#linearGradient4)" text-rendering="geometricPrecision" shape-rendering="geometricPrecision" transform="matrix(1,0,0,1,269,66)" stroke="url(#linearGradient4)">
      <path d="M384.25 287.5 L464.25 287.5 L454.25 358.5 L394.25 358.5 Z" stroke="none" clip-path="url(#clipPath2)"/>
    </g>
    <g text-rendering="geometricPrecision" stroke-miterlimit="1.45" shape-rendering="geometricPrecision" transform="matrix(1,0,0,1,269,66)" stroke-linecap="butt">
      <path fill="none" d="M384.25 287.5 L464.25 287.5 L454.25 358.5 L394.25 358.5 Z" clip-path="url(#clipPath2)"/>
      <text x="398.8174" xml:space="preserve" y="313.4023" clip-path="url(#clipPath2)" font-family="sans-serif" stroke="none">Adaptive</text>
      <text x="400.8096" xml:space="preserve" y="327.5352" clip-path="url(#clipPath2)" font-family="sans-serif" stroke="none">Average</text>
      <text x="402.6289" xml:space="preserve" y="341.668" clip-path="url(#clipPath2)" font-family="sans-serif" stroke="none">Pooling</text>
    </g>
    <g fill="url(#linearGradient5)" text-rendering="geometricPrecision" shape-rendering="geometricPrecision" transform="matrix(1,0,0,1,269,66)" stroke="url(#linearGradient5)">
      <path d="M689.25 234.5 L763.25 234.5 L773.25 254.5 L763.25 274.5 L689.25 274.5 L679.25 254.5 Z" stroke="none" clip-path="url(#clipPath2)"/>
    </g>
    <g text-rendering="geometricPrecision" stroke-miterlimit="1.45" shape-rendering="geometricPrecision" transform="matrix(1,0,0,1,269,66)" stroke-linecap="butt">
      <path fill="none" d="M689.25 234.5 L763.25 234.5 L773.25 254.5 L763.25 274.5 L689.25 274.5 L679.25 254.5 Z" clip-path="url(#clipPath2)"/>
      <text x="688.6562" xml:space="preserve" y="259.0352" clip-path="url(#clipPath2)" font-family="sans-serif" stroke="none">box_decoder</text>
    </g>
    <g fill="url(#linearGradient6)" text-rendering="geometricPrecision" shape-rendering="geometricPrecision" transform="matrix(1,0,0,1,269,66)" stroke="url(#linearGradient6)">
      <path d="M689.25 363 L763.25 363 L773.25 383 L763.25 403 L689.25 403 L679.25 383 Z" stroke="none" clip-path="url(#clipPath2)"/>
    </g>
    <g text-rendering="geometricPrecision" stroke-miterlimit="1.45" shape-rendering="geometricPrecision" transform="matrix(1,0,0,1,269,66)" stroke-linecap="butt">
      <path fill="none" d="M689.25 363 L763.25 363 L773.25 383 L763.25 403 L689.25 403 L679.25 383 Z" clip-path="url(#clipPath2)"/>
      <text x="685.5596" xml:space="preserve" y="387.5352" clip-path="url(#clipPath2)" font-family="sans-serif" stroke="none">class_decoder</text>
    </g>
    <g fill="url(#linearGradient7)" text-rendering="geometricPrecision" shape-rendering="geometricPrecision" transform="matrix(1,0,0,1,269,66)" stroke="url(#linearGradient7)">
      <path d="M689.25 298.75 L763.25 298.75 L773.25 318.75 L763.25 338.75 L689.25 338.75 L679.25 318.75 Z" stroke="none" clip-path="url(#clipPath2)"/>
    </g>
    <g text-rendering="geometricPrecision" stroke-miterlimit="1.45" shape-rendering="geometricPrecision" transform="matrix(1,0,0,1,269,66)" stroke-linecap="butt">
      <path fill="none" d="M689.25 298.75 L763.25 298.75 L773.25 318.75 L763.25 338.75 L689.25 338.75 L679.25 318.75 Z" clip-path="url(#clipPath2)"/>
      <text x="707.2217" xml:space="preserve" y="316.2188" clip-path="url(#clipPath2)" font-family="sans-serif" stroke="none">matrix</text>
      <text x="697.5068" xml:space="preserve" y="330.3516" clip-path="url(#clipPath2)" font-family="sans-serif" stroke="none">transform</text>
    </g>
    <g fill="url(#linearGradient8)" text-rendering="geometricPrecision" shape-rendering="geometricPrecision" transform="matrix(1,0,0,1,269,66)" stroke="url(#linearGradient8)">
      <path d="M165.5 -25.5 L211.5 -25.5 L211.5 86.5 L165.5 86.5 Z" stroke="none" clip-path="url(#clipPath2)"/>
    </g>
    <g text-rendering="geometricPrecision" stroke-miterlimit="1.45" shape-rendering="geometricPrecision" transform="matrix(1,0,0,1,269,66)" stroke-linecap="butt">
      <path fill="none" d="M165.5 -25.5 L211.5 -25.5 L211.5 86.5 L165.5 86.5 Z" clip-path="url(#clipPath2)"/>
    </g>
    <g text-rendering="geometricPrecision" stroke-miterlimit="1.45" shape-rendering="geometricPrecision" font-family="sans-serif" transform="matrix(0,1,-1,0,466.5664,82.957)" stroke-linecap="butt">
      <text x="2" xml:space="preserve" y="13.6016" clip-path="url(#clipPath17)" stroke="none">RPN</text>
    </g>
    <g fill="url(#linearGradient9)" text-rendering="geometricPrecision" shape-rendering="geometricPrecision" transform="matrix(1,0,0,1,269,66)" stroke="url(#linearGradient9)">
      <path d="M51.5 -15 L125.5 -15 L135.5 5 L125.5 25 L51.5 25 L41.5 5 Z" stroke="none" clip-path="url(#clipPath2)"/>
    </g>
    <g text-rendering="geometricPrecision" stroke-miterlimit="1.45" shape-rendering="geometricPrecision" transform="matrix(1,0,0,1,269,66)" stroke-linecap="butt">
      <path fill="none" d="M51.5 -15 L125.5 -15 L135.5 5 L125.5 25 L51.5 25 L41.5 5 Z" clip-path="url(#clipPath2)"/>
      <text x="68.5254" xml:space="preserve" y="2.4688" clip-path="url(#clipPath2)" font-family="sans-serif" stroke="none">anchor</text>
      <text x="60.1963" xml:space="preserve" y="16.6016" clip-path="url(#clipPath2)" font-family="sans-serif" stroke="none">generator</text>
    </g>
    <g fill="url(#linearGradient10)" text-rendering="geometricPrecision" shape-rendering="geometricPrecision" transform="matrix(1,0,0,1,269,66)" stroke="url(#linearGradient10)">
      <path d="M259 267 L311 267 L311 379 L259 379 Z" stroke="none" clip-path="url(#clipPath2)"/>
    </g>
    <g text-rendering="geometricPrecision" stroke-miterlimit="1.45" shape-rendering="geometricPrecision" transform="matrix(1,0,0,1,269,66)" stroke-linecap="butt">
      <path fill="none" d="M259 267 L311 267 L311 379 L259 379 Z" clip-path="url(#clipPath2)"/>
    </g>
    <g text-rendering="geometricPrecision" stroke-miterlimit="1.45" shape-rendering="geometricPrecision" font-family="sans-serif" transform="matrix(0,1,-1,0,570.1328,345.0557)" stroke-linecap="butt">
      <text x="26.1699" xml:space="preserve" y="13.6016" clip-path="url(#clipPath18)" stroke="none">layer4</text>
      <text x="2" xml:space="preserve" y="27.7344" clip-path="url(#clipPath18)" stroke="none">3 x bottleneck</text>
    </g>
    <g fill="url(#linearGradient11)" text-rendering="geometricPrecision" shape-rendering="geometricPrecision" transform="matrix(1,0,0,1,269,66)" stroke="url(#linearGradient11)">
      <path d="M2.625 267 L116.625 267 L116.625 379 L2.625 379 Z" stroke="none" clip-path="url(#clipPath2)"/>
    </g>
    <g text-rendering="geometricPrecision" stroke-miterlimit="1.45" shape-rendering="geometricPrecision" transform="matrix(1,0,0,1,269,66)" stroke-linecap="butt">
      <path fill="none" d="M2.625 267 L116.625 267 L116.625 379 L2.625 379 Z" clip-path="url(#clipPath2)"/>
    </g>
    <g text-rendering="geometricPrecision" stroke-miterlimit="1.45" shape-rendering="geometricPrecision" font-family="sans-serif" transform="matrix(0,1,-1,0,344.7578,345.0557)" stroke-linecap="butt">
      <text x="26.1699" xml:space="preserve" y="13.6016" clip-path="url(#clipPath19)" stroke="none">layer3</text>
      <text x="2" xml:space="preserve" y="27.7344" clip-path="url(#clipPath19)" stroke="none">6 x bottleneck</text>
    </g>
    <g fill="url(#linearGradient12)" text-rendering="geometricPrecision" shape-rendering="geometricPrecision" transform="matrix(1,0,0,1,269,66)" stroke="url(#linearGradient12)">
      <path d="M-82.875 267 L-15.875 267 L-15.875 379 L-82.875 379 Z" stroke="none" clip-path="url(#clipPath2)"/>
    </g>
    <g text-rendering="geometricPrecision" stroke-miterlimit="1.45" shape-rendering="geometricPrecision" transform="matrix(1,0,0,1,269,66)" stroke-linecap="butt">
      <path fill="none" d="M-82.875 267 L-15.875 267 L-15.875 379 L-82.875 379 Z" clip-path="url(#clipPath2)"/>
    </g>
    <g text-rendering="geometricPrecision" stroke-miterlimit="1.45" shape-rendering="geometricPrecision" font-family="sans-serif" transform="matrix(0,1,-1,0,235.7578,345.0557)" stroke-linecap="butt">
      <text x="26.1699" xml:space="preserve" y="13.6016" clip-path="url(#clipPath20)" stroke="none">layer2</text>
      <text x="2" xml:space="preserve" y="27.7344" clip-path="url(#clipPath20)" stroke="none">4 x bottleneck</text>
    </g>
    <g fill="url(#linearGradient13)" text-rendering="geometricPrecision" shape-rendering="geometricPrecision" transform="matrix(1,0,0,1,269,66)" stroke="url(#linearGradient13)">
      <path d="M-153.375 267 L-101.375 267 L-101.375 379 L-153.375 379 Z" stroke="none" clip-path="url(#clipPath2)"/>
    </g>
    <g text-rendering="geometricPrecision" stroke-miterlimit="1.45" shape-rendering="geometricPrecision" transform="matrix(1,0,0,1,269,66)" stroke-linecap="butt">
      <path fill="none" d="M-153.375 267 L-101.375 267 L-101.375 379 L-153.375 379 Z" clip-path="url(#clipPath2)"/>
    </g>
    <g text-rendering="geometricPrecision" stroke-miterlimit="1.45" shape-rendering="geometricPrecision" font-family="sans-serif" transform="matrix(0,1,-1,0,157.7578,345.0557)" stroke-linecap="butt">
      <text x="26.1699" xml:space="preserve" y="13.6016" clip-path="url(#clipPath21)" stroke="none">layer1</text>
      <text x="2" xml:space="preserve" y="27.7344" clip-path="url(#clipPath21)" stroke="none">3 x bottleneck</text>
    </g>
    <g fill="url(#linearGradient14)" text-rendering="geometricPrecision" shape-rendering="geometricPrecision" transform="matrix(1,0,0,1,269,66)" stroke="url(#linearGradient14)">
      <path d="M-194.875 267 L-171.875 267 L-171.875 379 L-194.875 379 Z" stroke="none" clip-path="url(#clipPath2)"/>
    </g>
    <g text-rendering="geometricPrecision" stroke-miterlimit="1.45" shape-rendering="geometricPrecision" transform="matrix(1,0,0,1,269,66)" stroke-linecap="butt">
      <path fill="none" d="M-194.875 267 L-171.875 267 L-171.875 379 L-194.875 379 Z" clip-path="url(#clipPath2)"/>
    </g>
    <g text-rendering="geometricPrecision" stroke-miterlimit="1.45" shape-rendering="geometricPrecision" font-family="sans-serif" transform="matrix(0,1,-1,0,94.6914,369.2256)" stroke-linecap="butt">
      <text x="2" xml:space="preserve" y="13.6016" clip-path="url(#clipPath22)" stroke="none">layer0</text>
    </g>
    <g text-rendering="geometricPrecision" stroke-miterlimit="1.45" shape-rendering="geometricPrecision" transform="matrix(1,0,0,1,269,66)" stroke-linecap="butt">
      <path fill="none" d="M507.5079 316.4276 L549.2601 279.8777" clip-path="url(#clipPath2)"/>
      <path d="M555.2795 274.6083 L542.957 278.7503 L548.5077 280.5364 L549.5438 286.2746 Z" clip-path="url(#clipPath2)" stroke="none"/>
      <path fill="none" d="M601.2625 254.5 L623.2452 254.5" clip-path="url(#clipPath2)"/>
      <path d="M631.2452 254.5 L619.2452 249.5 L622.2452 254.5 L619.2452 259.5 Z" clip-path="url(#clipPath2)" stroke="none"/>
      <path fill="none" d="M507.527 328.7715 L548.8682 360.4708" clip-path="url(#clipPath2)"/>
      <path d="M555.2167 365.3387 L548.7363 354.069 L548.0746 359.8623 L542.6515 362.0047 Z" clip-path="url(#clipPath2)" stroke="none"/>
      <path fill="none" d="M601.2625 383 L623.2452 383" clip-path="url(#clipPath2)"/>
      <path d="M631.2452 383 L619.2452 378 L622.2452 383 L619.2452 388 Z" clip-path="url(#clipPath2)" stroke="none"/>
      <path fill="none" d="M142.3667 266.9938 L142 187.5 L193.7277 187.5" clip-path="url(#clipPath2)"/>
      <path d="M201.7277 187.5 L189.7277 182.5 L192.7277 187.5 L189.7277 192.5 Z" clip-path="url(#clipPath2)" stroke="none"/>
      <path fill="none" d="M242.5 108.0016 L242.5 144.0242" clip-path="url(#clipPath2)"/>
      <path d="M242.5 152.0242 L247.5 140.0242 L242.5 143.0242 L237.5 140.0242 Z" clip-path="url(#clipPath2)" stroke="none"/>
      <path fill="none" d="M236.75 222.996 L236.75 272.469" clip-path="url(#clipPath2)"/>
      <path d="M236.75 280.469 L241.75 268.469 L236.75 271.469 L231.75 268.469 Z" clip-path="url(#clipPath2)" stroke="none"/>
      <path fill="none" d="M356.0084 323 L381.2296 323" clip-path="url(#clipPath2)"/>
      <path d="M389.2296 323 L377.2296 318 L380.2296 323 L377.2296 328 Z" clip-path="url(#clipPath2)" stroke="none"/>
      <path fill="none" d="M459.277 323 L484.4837 323" clip-path="url(#clipPath2)"/>
      <path d="M492.4837 323 L480.4837 318 L483.4837 323 L480.4837 328 Z" clip-path="url(#clipPath2)" stroke="none"/>
      <path fill="none" d="M646.2268 254.5 L671.2442 254.5" clip-path="url(#clipPath2)"/>
      <path d="M679.2442 254.5 L667.2442 249.5 L670.2442 254.5 L667.2442 259.5 Z" clip-path="url(#clipPath2)" stroke="none"/>
      <path fill="none" d="M250.0291 72.5 L726.25 72.5 L726.25 226.4604" clip-path="url(#clipPath2)"/>
      <path d="M726.25 234.4604 L731.25 222.4604 L726.25 225.4604 L721.25 222.4604 Z" clip-path="url(#clipPath2)" stroke="none"/>
      <path fill="none" d="M646.2268 383 L671.2442 383" clip-path="url(#clipPath2)"/>
      <path d="M679.2442 383 L667.2442 378 L670.2442 383 L667.2442 388 Z" clip-path="url(#clipPath2)" stroke="none"/>
      <path fill="none" d="M726.25 274.484 L726.25 290.7352" clip-path="url(#clipPath2)"/>
      <path d="M726.25 298.7352 L731.25 286.7352 L726.25 289.7352 L721.25 286.7352 Z" clip-path="url(#clipPath2)" stroke="none"/>
      <path fill="none" d="M726.25 363.016 L726.25 346.7648" clip-path="url(#clipPath2)"/>
      <path d="M726.25 338.7648 L721.25 350.7648 L726.25 347.7648 L731.25 350.7648 Z" clip-path="url(#clipPath2)" stroke="none"/>
      <path fill="none" d="M746.1444 298.7585 L815.6248 228.9392" clip-path="url(#clipPath2)"/>
      <path d="M821.2679 223.2686 L809.2592 228.2476 L814.9194 229.648 L816.3474 235.3014 Z" clip-path="url(#clipPath2)" stroke="none"/>
      <path fill="none" d="M773.2709 318.75 L813.2462 318.75" clip-path="url(#clipPath2)"/>
      <path d="M821.2462 318.75 L809.2462 313.75 L812.2462 318.75 L809.2462 323.75 Z" clip-path="url(#clipPath2)" stroke="none"/>
      <path fill="none" d="M746.1444 338.7415 L815.6248 408.5608" clip-path="url(#clipPath2)"/>
      <path d="M821.2679 414.2314 L816.3474 402.1986 L814.9194 407.852 L809.2592 409.2524 Z" clip-path="url(#clipPath2)" stroke="none"/>
      <path fill="none" d="M142.4891 267.0176 L142 65.5 L157.5029 65.5" clip-path="url(#clipPath2)"/>
      <path d="M165.5029 65.5 L153.5029 60.5 L156.5029 65.5 L153.5029 70.5 Z" clip-path="url(#clipPath2)" stroke="none"/>
      <path fill="none" d="M211.48 -15.5 L227.0176 -15.5" clip-path="url(#clipPath2)"/>
      <path d="M235.0176 -15.5 L223.0176 -20.5 L226.0176 -15.5 L223.0176 -10.5 Z" clip-path="url(#clipPath2)" stroke="none"/>
      <path fill="none" d="M211.5076 72.5 L227.0243 72.5" clip-path="url(#clipPath2)"/>
      <path d="M235.0243 72.5 L223.0243 67.5 L226.0243 72.5 L223.0243 77.5 Z" clip-path="url(#clipPath2)" stroke="none"/>
      <path fill="none" d="M135.4807 5 L157.5101 5" clip-path="url(#clipPath2)"/>
      <path d="M165.5101 5 L153.5101 0 L156.5101 5 L153.5101 10 Z" clip-path="url(#clipPath2)" stroke="none"/>
      <path fill="none" d="M244.2419 323 L251.0088 323" clip-path="url(#clipPath2)"/>
      <path d="M259.0088 323 L247.0088 318 L250.0088 323 L247.0088 328 Z" clip-path="url(#clipPath2)" stroke="none"/>
      <path fill="none" d="M311.0139 323 L332.9955 323" clip-path="url(#clipPath2)"/>
      <path d="M340.9955 323 L328.9955 318 L331.9955 323 L328.9955 328 Z" clip-path="url(#clipPath2)" stroke="none"/>
      <path fill="none" d="M116.647 323 L127.1411 323" clip-path="url(#clipPath2)"/>
      <path d="M135.1411 323 L123.1411 318 L126.1411 323 L123.1411 328 Z" clip-path="url(#clipPath2)" stroke="none"/>
      <path fill="none" d="M-15.8713 323 L-5.4028 323" clip-path="url(#clipPath2)"/>
      <path d="M2.5972 323 L-9.4028 318 L-6.4028 323 L-9.4028 328 Z" clip-path="url(#clipPath2)" stroke="none"/>
      <path fill="none" d="M-101.4001 323 L-90.8814 323" clip-path="url(#clipPath2)"/>
      <path d="M-82.8814 323 L-94.8814 318 L-91.8814 323 L-94.8814 328 Z" clip-path="url(#clipPath2)" stroke="none"/>
      <path fill="none" d="M-237.0086 323 L-202.8717 323" clip-path="url(#clipPath2)"/>
      <path d="M-194.8717 323 L-206.8717 318 L-203.8717 323 L-206.8717 328 Z" clip-path="url(#clipPath2)" stroke="none"/>
      <path fill="none" d="M-171.8633 323 L-161.3989 323" clip-path="url(#clipPath2)"/>
      <path d="M-153.3989 323 L-165.3989 318 L-162.3989 323 L-165.3989 328 Z" clip-path="url(#clipPath2)" stroke="none"/>
    </g>
  </g>
</svg>
